<?xml version="1.0" encoding="UTF-8"?><svg id="Root_Beer_Bottled" xmlns="http://www.w3.org/2000/svg" width="512" height="512" viewBox="0 0 512 512"><defs><style>.cls-1{stroke-width:15px;}.cls-1,.cls-2,.cls-3{stroke:#bf471d;}.cls-1,.cls-2,.cls-3,.cls-4{stroke-linecap:round;}.cls-1,.cls-3,.cls-4{fill:none;}.cls-1,.cls-4{stroke-miterlimit:10;}.cls-5{fill:#0071bc;}.cls-6{fill:#009245;}.cls-7{fill:#666;}.cls-2{fill:#f15a24;stroke-width:14px;}.cls-2,.cls-3{stroke-linejoin:round;}.cls-8{fill:#006630;}.cls-3{stroke-width:4.62px;}.cls-4{stroke:#004d80;stroke-width:5px;}</style></defs><circle id="Background" class="cls-7" cx="256" cy="256" r="256"/><g id="Icons"><g id="Can"><path id="Body" class="cls-5" d="M461.86,182.75l-.94,2.6,9.59,9.84c2.4,3.01,3.71,6.76,3.71,10.61v172.31c0,6.29-5.1,11.39-11.39,11.39l-.26.27c-3.74,3.96-8.95,6.19-14.4,6.17l-66.19-.24c-5.41-.02-10.57-2.26-14.28-6.2h0c-6.29,0-11.39-5.1-11.39-11.39v-172.51c0-3.73,1.22-7.35,3.48-10.32l9.82-9.93-1.02-1.44c-.79-1.12,0-2.67,1.37-2.68l90.27-.78c1.19-.01,2.03,1.17,1.62,2.29Z"/><line id="Lip" class="cls-4" x1="370.54" y1="182.94" x2="459.96" y2="182.94"/></g><g id="Bottle"><path id="Body-2" class="cls-6" d="M310.6,30.13c1.31,28.42,2.04,76.96,13.12,99.4,11.48,23.26,25.88,29.5,25.79,65.16l-.44,188.52c-15.78,27.08-110.57,27.77-130.77-.31l.1-189.64c0-18.11,7.02-34.26,17.64-48.01,8.79-11.38,13.98-23.01,16.42-37.42,4.32-25.48,5.7-50.71,6.53-76.93l51.61-.77Z"/><path id="Cap" class="cls-8" d="M258.99,30.9l-6.65-4.09c-.13-3.62,1.57-10.85,4.82-13.23,17.41-4.79,34.28-4.16,51.67-1.17,7.93,1.37,8.9,12.8,7.8,14.39-.83,1.19-3.52,2.22-6.04,3.33l-51.61.77Z"/></g><g id="Mug"><g id="Main"><path id="Body-3" class="cls-2" d="M203.59,134.71v213.28c0,18.84-13.31,34.1-29.72,34.1h-96.98c-16.41,0-29.72-15.27-29.72-34.1v-213.28"/><path id="Handle" class="cls-1" d="M203.59,196.63c65.08,0,65.08,124.86,0,124.86"/></g><g id="Indents"><path class="cls-3" d="M95,180.47v147.76c0,8.56-6.94,15.5-15.5,15.5h0c-8.56,0-15.5-6.94-15.5-15.5v-147.76"/><path class="cls-3" d="M140.88,180.47v147.76c0,8.56-6.94,15.5-15.5,15.5h0c-8.56,0-15.5-6.94-15.5-15.5v-147.76"/><path class="cls-3" d="M186.76,180.47v147.76c0,8.56-6.94,15.5-15.5,15.5h0c-8.56,0-15.5-6.94-15.5-15.5v-147.76"/></g></g></g></svg>